<mxfile host="app.diagrams.net" agent="Mozilla/5.0 (Windows NT 10.0; Win64; x64) AppleWebKit/537.36 (KHTML, like Gecko) Chrome/135.0.0.0 Safari/537.36" version="26.2.12">
  <diagram name="Page-1" id="b5b7bab2-c9e2-2cf4-8b2a-24fd1a2a6d21">
    <mxGraphModel dx="3405" dy="1240" grid="1" gridSize="10" guides="1" tooltips="1" connect="1" arrows="1" fold="1" page="1" pageScale="1" pageWidth="827" pageHeight="1169" background="none" math="0" shadow="0">
      <root>
        <mxCell id="0" />
        <mxCell id="1" parent="0" />
        <mxCell id="F_lrqiQLRbvNHL63mxr3-3" value="Server" style="swimlane;fontStyle=1;align=center;verticalAlign=top;childLayout=stackLayout;horizontal=1;startSize=26;horizontalStack=0;resizeParent=1;resizeParentMax=0;resizeLast=0;collapsible=1;marginBottom=0;whiteSpace=wrap;html=1;" parent="1" vertex="1">
          <mxGeometry x="-1590" y="340" width="180" height="150" as="geometry" />
        </mxCell>
        <mxCell id="F_lrqiQLRbvNHL63mxr3-4" value="- tasks: BlockingQueue&amp;lt;Task&amp;gt;&amp;nbsp;&lt;div&gt;- waitingPeriod: AtomicInteger&lt;/div&gt;" style="text;strokeColor=none;fillColor=none;align=left;verticalAlign=top;spacingLeft=4;spacingRight=4;overflow=hidden;rotatable=0;points=[[0,0.5],[1,0.5]];portConstraint=eastwest;whiteSpace=wrap;html=1;" parent="F_lrqiQLRbvNHL63mxr3-3" vertex="1">
          <mxGeometry y="26" width="180" height="44" as="geometry" />
        </mxCell>
        <mxCell id="F_lrqiQLRbvNHL63mxr3-5" value="" style="line;strokeWidth=1;fillColor=none;align=left;verticalAlign=middle;spacingTop=-1;spacingLeft=3;spacingRight=3;rotatable=0;labelPosition=right;points=[];portConstraint=eastwest;strokeColor=inherit;" parent="F_lrqiQLRbvNHL63mxr3-3" vertex="1">
          <mxGeometry y="70" width="180" height="20" as="geometry" />
        </mxCell>
        <mxCell id="F_lrqiQLRbvNHL63mxr3-6" value="+ addTask(newTask: Task): void + run(): void&amp;nbsp;&lt;div&gt;+toString(): String&lt;/div&gt;" style="text;strokeColor=none;fillColor=none;align=left;verticalAlign=top;spacingLeft=4;spacingRight=4;overflow=hidden;rotatable=0;points=[[0,0.5],[1,0.5]];portConstraint=eastwest;whiteSpace=wrap;html=1;" parent="F_lrqiQLRbvNHL63mxr3-3" vertex="1">
          <mxGeometry y="90" width="180" height="60" as="geometry" />
        </mxCell>
        <mxCell id="F_lrqiQLRbvNHL63mxr3-8" value="Task" style="swimlane;fontStyle=1;align=center;verticalAlign=top;childLayout=stackLayout;horizontal=1;startSize=26;horizontalStack=0;resizeParent=1;resizeParentMax=0;resizeLast=0;collapsible=1;marginBottom=0;whiteSpace=wrap;html=1;" parent="1" vertex="1">
          <mxGeometry x="-1247" y="450" width="160" height="150" as="geometry" />
        </mxCell>
        <mxCell id="F_lrqiQLRbvNHL63mxr3-9" value="- id: int&lt;div&gt;- arrivalTime: int&lt;/div&gt;&lt;div&gt;- serviceTime: int&lt;/div&gt;" style="text;strokeColor=none;fillColor=none;align=left;verticalAlign=top;spacingLeft=4;spacingRight=4;overflow=hidden;rotatable=0;points=[[0,0.5],[1,0.5]];portConstraint=eastwest;whiteSpace=wrap;html=1;" parent="F_lrqiQLRbvNHL63mxr3-8" vertex="1">
          <mxGeometry y="26" width="160" height="54" as="geometry" />
        </mxCell>
        <mxCell id="F_lrqiQLRbvNHL63mxr3-10" value="" style="line;strokeWidth=1;fillColor=none;align=left;verticalAlign=middle;spacingTop=-1;spacingLeft=3;spacingRight=3;rotatable=0;labelPosition=right;points=[];portConstraint=eastwest;strokeColor=inherit;" parent="F_lrqiQLRbvNHL63mxr3-8" vertex="1">
          <mxGeometry y="80" width="160" height="8" as="geometry" />
        </mxCell>
        <mxCell id="F_lrqiQLRbvNHL63mxr3-11" value="+ toString(): String + compareTo(o: Object): int" style="text;strokeColor=none;fillColor=none;align=left;verticalAlign=top;spacingLeft=4;spacingRight=4;overflow=hidden;rotatable=0;points=[[0,0.5],[1,0.5]];portConstraint=eastwest;whiteSpace=wrap;html=1;" parent="F_lrqiQLRbvNHL63mxr3-8" vertex="1">
          <mxGeometry y="88" width="160" height="62" as="geometry" />
        </mxCell>
        <mxCell id="F_lrqiQLRbvNHL63mxr3-12" value="Scheduler" style="swimlane;fontStyle=1;align=center;verticalAlign=top;childLayout=stackLayout;horizontal=1;startSize=26;horizontalStack=0;resizeParent=1;resizeParentMax=0;resizeLast=0;collapsible=1;marginBottom=0;whiteSpace=wrap;html=1;" parent="1" vertex="1">
          <mxGeometry x="-770" y="760" width="270" height="170" as="geometry" />
        </mxCell>
        <mxCell id="F_lrqiQLRbvNHL63mxr3-13" value="&lt;div&gt;- servers: List&amp;lt;Server&amp;gt;&amp;nbsp;&amp;nbsp;&lt;/div&gt;&lt;div&gt;- maxNoServers: int&amp;nbsp;&amp;nbsp;&lt;/div&gt;&lt;div&gt;- maxTasksPerServer: int&amp;nbsp;&amp;nbsp;&lt;/div&gt;&lt;div&gt;- strategy: Strategy&amp;nbsp;&amp;nbsp;&lt;/div&gt;" style="text;strokeColor=none;fillColor=none;align=left;verticalAlign=top;spacingLeft=4;spacingRight=4;overflow=hidden;rotatable=0;points=[[0,0.5],[1,0.5]];portConstraint=eastwest;whiteSpace=wrap;html=1;" parent="F_lrqiQLRbvNHL63mxr3-12" vertex="1">
          <mxGeometry y="26" width="270" height="74" as="geometry" />
        </mxCell>
        <mxCell id="F_lrqiQLRbvNHL63mxr3-14" value="" style="line;strokeWidth=1;fillColor=none;align=left;verticalAlign=middle;spacingTop=-1;spacingLeft=3;spacingRight=3;rotatable=0;labelPosition=right;points=[];portConstraint=eastwest;strokeColor=inherit;" parent="F_lrqiQLRbvNHL63mxr3-12" vertex="1">
          <mxGeometry y="100" width="270" height="8" as="geometry" />
        </mxCell>
        <mxCell id="F_lrqiQLRbvNHL63mxr3-15" value="&lt;div&gt;+ changeStrategy(policy: SelectionPolicy): void&amp;nbsp;&amp;nbsp;&lt;/div&gt;&lt;div&gt;+ dispatchTask(task: Task): void&amp;nbsp;&amp;nbsp;&lt;/div&gt;&lt;div&gt;+ getServers(): List&amp;lt;Server&amp;gt;&amp;nbsp;&lt;/div&gt;" style="text;strokeColor=none;fillColor=none;align=left;verticalAlign=top;spacingLeft=4;spacingRight=4;overflow=hidden;rotatable=0;points=[[0,0.5],[1,0.5]];portConstraint=eastwest;whiteSpace=wrap;html=1;" parent="F_lrqiQLRbvNHL63mxr3-12" vertex="1">
          <mxGeometry y="108" width="270" height="62" as="geometry" />
        </mxCell>
        <mxCell id="F_lrqiQLRbvNHL63mxr3-16" value="Strategy" style="swimlane;fontStyle=1;align=center;verticalAlign=top;childLayout=stackLayout;horizontal=1;startSize=26;horizontalStack=0;resizeParent=1;resizeParentMax=0;resizeLast=0;collapsible=1;marginBottom=0;whiteSpace=wrap;html=1;" parent="1" vertex="1">
          <mxGeometry x="-1247" y="670" width="270" height="60" as="geometry" />
        </mxCell>
        <mxCell id="F_lrqiQLRbvNHL63mxr3-18" value="" style="line;strokeWidth=1;fillColor=none;align=left;verticalAlign=middle;spacingTop=-1;spacingLeft=3;spacingRight=3;rotatable=0;labelPosition=right;points=[];portConstraint=eastwest;strokeColor=inherit;" parent="F_lrqiQLRbvNHL63mxr3-16" vertex="1">
          <mxGeometry y="26" width="270" height="8" as="geometry" />
        </mxCell>
        <mxCell id="F_lrqiQLRbvNHL63mxr3-19" value="+addTask(servers:List&amp;lt;Server&amp;gt;,task:Task): void" style="text;strokeColor=none;fillColor=none;align=left;verticalAlign=top;spacingLeft=4;spacingRight=4;overflow=hidden;rotatable=0;points=[[0,0.5],[1,0.5]];portConstraint=eastwest;whiteSpace=wrap;html=1;" parent="F_lrqiQLRbvNHL63mxr3-16" vertex="1">
          <mxGeometry y="34" width="270" height="26" as="geometry" />
        </mxCell>
        <mxCell id="F_lrqiQLRbvNHL63mxr3-20" value="TimeStrategy" style="swimlane;fontStyle=1;align=center;verticalAlign=top;childLayout=stackLayout;horizontal=1;startSize=26;horizontalStack=0;resizeParent=1;resizeParentMax=0;resizeLast=0;collapsible=1;marginBottom=0;whiteSpace=wrap;html=1;" parent="1" vertex="1">
          <mxGeometry x="-1490" y="980" width="300" height="60" as="geometry" />
        </mxCell>
        <mxCell id="F_lrqiQLRbvNHL63mxr3-22" value="" style="line;strokeWidth=1;fillColor=none;align=left;verticalAlign=middle;spacingTop=-1;spacingLeft=3;spacingRight=3;rotatable=0;labelPosition=right;points=[];portConstraint=eastwest;strokeColor=inherit;" parent="F_lrqiQLRbvNHL63mxr3-20" vertex="1">
          <mxGeometry y="26" width="300" height="8" as="geometry" />
        </mxCell>
        <mxCell id="F_lrqiQLRbvNHL63mxr3-23" value="+addTask(servers:List&amp;lt;Server&amp;gt;,task:Task): void" style="text;strokeColor=none;fillColor=none;align=left;verticalAlign=top;spacingLeft=4;spacingRight=4;overflow=hidden;rotatable=0;points=[[0,0.5],[1,0.5]];portConstraint=eastwest;whiteSpace=wrap;html=1;" parent="F_lrqiQLRbvNHL63mxr3-20" vertex="1">
          <mxGeometry y="34" width="300" height="26" as="geometry" />
        </mxCell>
        <mxCell id="F_lrqiQLRbvNHL63mxr3-24" value="ShortestQueueStrategy" style="swimlane;fontStyle=1;align=center;verticalAlign=top;childLayout=stackLayout;horizontal=1;startSize=26;horizontalStack=0;resizeParent=1;resizeParentMax=0;resizeLast=0;collapsible=1;marginBottom=0;whiteSpace=wrap;html=1;" parent="1" vertex="1">
          <mxGeometry x="-1160" y="990" width="280" height="60" as="geometry" />
        </mxCell>
        <mxCell id="F_lrqiQLRbvNHL63mxr3-26" value="" style="line;strokeWidth=1;fillColor=none;align=left;verticalAlign=middle;spacingTop=-1;spacingLeft=3;spacingRight=3;rotatable=0;labelPosition=right;points=[];portConstraint=eastwest;strokeColor=inherit;" parent="F_lrqiQLRbvNHL63mxr3-24" vertex="1">
          <mxGeometry y="26" width="280" height="8" as="geometry" />
        </mxCell>
        <mxCell id="F_lrqiQLRbvNHL63mxr3-27" value="+addTask(servers:List&amp;lt;Server&amp;gt;,task:Task): void" style="text;strokeColor=none;fillColor=none;align=left;verticalAlign=top;spacingLeft=4;spacingRight=4;overflow=hidden;rotatable=0;points=[[0,0.5],[1,0.5]];portConstraint=eastwest;whiteSpace=wrap;html=1;" parent="F_lrqiQLRbvNHL63mxr3-24" vertex="1">
          <mxGeometry y="34" width="280" height="26" as="geometry" />
        </mxCell>
        <mxCell id="F_lrqiQLRbvNHL63mxr3-29" value="SimulationManager" style="swimlane;fontStyle=1;align=center;verticalAlign=top;childLayout=stackLayout;horizontal=1;startSize=26;horizontalStack=0;resizeParent=1;resizeParentMax=0;resizeLast=0;collapsible=1;marginBottom=0;whiteSpace=wrap;html=1;" parent="1" vertex="1">
          <mxGeometry x="-650" y="290" width="250" height="330" as="geometry" />
        </mxCell>
        <mxCell id="F_lrqiQLRbvNHL63mxr3-30" value="&lt;div&gt;- timeLimit: int&amp;nbsp;&amp;nbsp;&lt;/div&gt;&lt;div&gt;- maxProcessingTime: int&amp;nbsp;&amp;nbsp;&lt;/div&gt;&lt;div&gt;- minProcessingTime: int&amp;nbsp;&amp;nbsp;&lt;/div&gt;&lt;div&gt;- maxArrivalTime: int&amp;nbsp;&amp;nbsp;&lt;/div&gt;&lt;div&gt;- minArrivalTime: int&amp;nbsp;&amp;nbsp;&lt;/div&gt;&lt;div&gt;- numberOfServers: int&amp;nbsp;&amp;nbsp;&lt;/div&gt;&lt;div&gt;- numberOfClients: int&amp;nbsp;&amp;nbsp;&lt;/div&gt;&lt;div&gt;- scheduler: Scheduler&amp;nbsp;&amp;nbsp;&lt;/div&gt;&lt;div&gt;- frame: SimulationFrame&amp;nbsp;&amp;nbsp;&lt;/div&gt;&lt;div&gt;- tasks: List&amp;lt;Task&amp;gt;&amp;nbsp;&amp;nbsp;&lt;/div&gt;&lt;div&gt;- selectionPolicy: SelectionPolicy&lt;/div&gt;" style="text;strokeColor=none;fillColor=none;align=left;verticalAlign=top;spacingLeft=4;spacingRight=4;overflow=hidden;rotatable=0;points=[[0,0.5],[1,0.5]];portConstraint=eastwest;whiteSpace=wrap;html=1;" parent="F_lrqiQLRbvNHL63mxr3-29" vertex="1">
          <mxGeometry y="26" width="250" height="194" as="geometry" />
        </mxCell>
        <mxCell id="F_lrqiQLRbvNHL63mxr3-31" value="" style="line;strokeWidth=1;fillColor=none;align=left;verticalAlign=middle;spacingTop=-1;spacingLeft=3;spacingRight=3;rotatable=0;labelPosition=right;points=[];portConstraint=eastwest;strokeColor=inherit;" parent="F_lrqiQLRbvNHL63mxr3-29" vertex="1">
          <mxGeometry y="220" width="250" height="8" as="geometry" />
        </mxCell>
        <mxCell id="F_lrqiQLRbvNHL63mxr3-32" value="&lt;div&gt;+ generateRandomTasks(): ArrayList&amp;lt;Task&amp;gt;&amp;nbsp;&amp;nbsp;&lt;/div&gt;&lt;div&gt;+ run(): void&amp;nbsp;&amp;nbsp;&lt;/div&gt;&lt;div&gt;+ main(args: String[]): void&amp;nbsp;&amp;nbsp;&lt;/div&gt;" style="text;strokeColor=none;fillColor=none;align=left;verticalAlign=top;spacingLeft=4;spacingRight=4;overflow=hidden;rotatable=0;points=[[0,0.5],[1,0.5]];portConstraint=eastwest;whiteSpace=wrap;html=1;" parent="F_lrqiQLRbvNHL63mxr3-29" vertex="1">
          <mxGeometry y="228" width="250" height="102" as="geometry" />
        </mxCell>
        <mxCell id="F_lrqiQLRbvNHL63mxr3-33" value="SimulationFrame" style="swimlane;fontStyle=1;align=center;verticalAlign=top;childLayout=stackLayout;horizontal=1;startSize=26;horizontalStack=0;resizeParent=1;resizeParentMax=0;resizeLast=0;collapsible=1;marginBottom=0;whiteSpace=wrap;html=1;" parent="1" vertex="1">
          <mxGeometry x="-1270" y="20" width="420" height="340" as="geometry" />
        </mxCell>
        <mxCell id="F_lrqiQLRbvNHL63mxr3-34" value="&lt;div&gt;- frame: JFrame&amp;nbsp;&amp;nbsp;&lt;/div&gt;&lt;div&gt;- animationFrame: JFrame&amp;nbsp;&amp;nbsp;&lt;/div&gt;&lt;div&gt;- clientsField: JTextField&amp;nbsp;&amp;nbsp;&lt;/div&gt;&lt;div&gt;- queuesField: JTextField&amp;nbsp;&amp;nbsp;&lt;/div&gt;&lt;div&gt;- simTimeField: JTextField&amp;nbsp;&amp;nbsp;&lt;/div&gt;&lt;div&gt;- arrivalMinField: JTextField&amp;nbsp;&amp;nbsp;&lt;/div&gt;&lt;div&gt;- arrivalMaxField: JTextField&amp;nbsp;&amp;nbsp;&lt;/div&gt;&lt;div&gt;- serviceMinField: JTextField&amp;nbsp;&amp;nbsp;&lt;/div&gt;&lt;div&gt;- serviceMaxField: JTextField&amp;nbsp;&amp;nbsp;&lt;/div&gt;&lt;div&gt;- startButton: JButton&amp;nbsp;&amp;nbsp;&lt;/div&gt;&lt;div&gt;- timeStrategyRadio: JRadioButton&amp;nbsp;&amp;nbsp;&lt;/div&gt;&lt;div&gt;- shortestQueueRadio: JRadioButton&amp;nbsp;&amp;nbsp;&lt;/div&gt;&lt;div&gt;- animationPanel: JPanel&amp;nbsp;&amp;nbsp;&lt;/div&gt;&lt;div&gt;- waitingPanel: JPanel&amp;nbsp;&amp;nbsp;&lt;/div&gt;" style="text;strokeColor=none;fillColor=none;align=left;verticalAlign=top;spacingLeft=4;spacingRight=4;overflow=hidden;rotatable=0;points=[[0,0.5],[1,0.5]];portConstraint=eastwest;whiteSpace=wrap;html=1;" parent="F_lrqiQLRbvNHL63mxr3-33" vertex="1">
          <mxGeometry y="26" width="420" height="224" as="geometry" />
        </mxCell>
        <mxCell id="F_lrqiQLRbvNHL63mxr3-35" value="" style="line;strokeWidth=1;fillColor=none;align=left;verticalAlign=middle;spacingTop=-1;spacingLeft=3;spacingRight=3;rotatable=0;labelPosition=right;points=[];portConstraint=eastwest;strokeColor=inherit;" parent="F_lrqiQLRbvNHL63mxr3-33" vertex="1">
          <mxGeometry y="250" width="420" height="8" as="geometry" />
        </mxCell>
        <mxCell id="F_lrqiQLRbvNHL63mxr3-36" value="+ animationQueues(servers: ArrayList&amp;lt;Server&amp;gt;, numberOfServers: int, tasks: ArrayList&amp;lt;Task&amp;gt;, currentTime: int): void&amp;nbsp;&amp;nbsp;&lt;div&gt;+initialize(): void&lt;/div&gt;" style="text;strokeColor=none;fillColor=none;align=left;verticalAlign=top;spacingLeft=4;spacingRight=4;overflow=hidden;rotatable=0;points=[[0,0.5],[1,0.5]];portConstraint=eastwest;whiteSpace=wrap;html=1;" parent="F_lrqiQLRbvNHL63mxr3-33" vertex="1">
          <mxGeometry y="258" width="420" height="82" as="geometry" />
        </mxCell>
        <mxCell id="m1a1YkXmMaXC1wrCnRLa-2" value="" style="endArrow=block;dashed=1;endFill=0;endSize=12;html=1;rounded=0;entryX=0.306;entryY=1.292;entryDx=0;entryDy=0;exitX=0.5;exitY=0;exitDx=0;exitDy=0;entryPerimeter=0;" parent="1" source="F_lrqiQLRbvNHL63mxr3-20" target="F_lrqiQLRbvNHL63mxr3-19" edge="1">
          <mxGeometry width="160" relative="1" as="geometry">
            <mxPoint x="-1420" y="870" as="sourcePoint" />
            <mxPoint x="-1260" y="870" as="targetPoint" />
          </mxGeometry>
        </mxCell>
        <mxCell id="m1a1YkXmMaXC1wrCnRLa-3" value="" style="endArrow=block;dashed=1;endFill=0;endSize=12;html=1;rounded=0;entryX=0.801;entryY=1.077;entryDx=0;entryDy=0;exitX=0.75;exitY=0;exitDx=0;exitDy=0;entryPerimeter=0;" parent="1" source="F_lrqiQLRbvNHL63mxr3-24" target="F_lrqiQLRbvNHL63mxr3-19" edge="1">
          <mxGeometry width="160" relative="1" as="geometry">
            <mxPoint x="-1340" y="990" as="sourcePoint" />
            <mxPoint x="-1237" y="753" as="targetPoint" />
          </mxGeometry>
        </mxCell>
        <mxCell id="m1a1YkXmMaXC1wrCnRLa-4" style="edgeStyle=orthogonalEdgeStyle;rounded=0;orthogonalLoop=1;jettySize=auto;html=1;exitX=0;exitY=0.5;exitDx=0;exitDy=0;entryX=0.75;entryY=0;entryDx=0;entryDy=0;" parent="1" source="F_lrqiQLRbvNHL63mxr3-13" target="F_lrqiQLRbvNHL63mxr3-16" edge="1">
          <mxGeometry relative="1" as="geometry" />
        </mxCell>
        <mxCell id="m1a1YkXmMaXC1wrCnRLa-6" style="edgeStyle=orthogonalEdgeStyle;rounded=0;orthogonalLoop=1;jettySize=auto;html=1;exitX=1;exitY=0.5;exitDx=0;exitDy=0;entryX=0.75;entryY=0;entryDx=0;entryDy=0;" parent="1" source="F_lrqiQLRbvNHL63mxr3-32" target="F_lrqiQLRbvNHL63mxr3-12" edge="1">
          <mxGeometry relative="1" as="geometry" />
        </mxCell>
        <mxCell id="oSNh4hmZnsA4qeuJ19Fp-1" value="" style="endArrow=diamondThin;endFill=0;endSize=24;html=1;rounded=0;exitX=1;exitY=0.5;exitDx=0;exitDy=0;entryX=0.021;entryY=0.236;entryDx=0;entryDy=0;entryPerimeter=0;" edge="1" parent="1" source="F_lrqiQLRbvNHL63mxr3-34" target="F_lrqiQLRbvNHL63mxr3-30">
          <mxGeometry width="160" relative="1" as="geometry">
            <mxPoint x="-1330" y="370" as="sourcePoint" />
            <mxPoint x="-1370" y="390" as="targetPoint" />
          </mxGeometry>
        </mxCell>
        <mxCell id="oSNh4hmZnsA4qeuJ19Fp-2" value="" style="endArrow=diamondThin;endFill=0;endSize=24;html=1;rounded=0;exitX=0;exitY=0.5;exitDx=0;exitDy=0;" edge="1" parent="1" source="F_lrqiQLRbvNHL63mxr3-9" target="F_lrqiQLRbvNHL63mxr3-6">
          <mxGeometry width="160" relative="1" as="geometry">
            <mxPoint x="-740" y="218" as="sourcePoint" />
            <mxPoint x="-980" y="208" as="targetPoint" />
          </mxGeometry>
        </mxCell>
        <mxCell id="oSNh4hmZnsA4qeuJ19Fp-3" value="" style="endArrow=block;dashed=1;endFill=0;endSize=12;html=1;rounded=0;entryX=0.75;entryY=0;entryDx=0;entryDy=0;exitX=0.399;exitY=1.003;exitDx=0;exitDy=0;exitPerimeter=0;" edge="1" parent="1" source="F_lrqiQLRbvNHL63mxr3-36" target="F_lrqiQLRbvNHL63mxr3-8">
          <mxGeometry width="160" relative="1" as="geometry">
            <mxPoint x="-940" y="1000" as="sourcePoint" />
            <mxPoint x="-1021" y="742" as="targetPoint" />
          </mxGeometry>
        </mxCell>
        <mxCell id="oSNh4hmZnsA4qeuJ19Fp-4" value="" style="endArrow=block;dashed=1;endFill=0;endSize=12;html=1;rounded=0;entryX=1;entryY=0.5;entryDx=0;entryDy=0;exitX=0.164;exitY=0.994;exitDx=0;exitDy=0;exitPerimeter=0;" edge="1" parent="1" source="F_lrqiQLRbvNHL63mxr3-36" target="F_lrqiQLRbvNHL63mxr3-4">
          <mxGeometry width="160" relative="1" as="geometry">
            <mxPoint x="-1092" y="370" as="sourcePoint" />
            <mxPoint x="-1307" y="573" as="targetPoint" />
          </mxGeometry>
        </mxCell>
      </root>
    </mxGraphModel>
  </diagram>
</mxfile>
